<?xml version="1.0" encoding="UTF-8"?>
<svg xmlns="http://www.w3.org/2000/svg" xmlns:xlink="http://www.w3.org/1999/xlink"
     width="1236.0" height="686.0" viewBox="0 0 1236.0 686.0" displayInline="False">
<defs>
</defs>
<path d="M18.0,68.0 v-10 v-40 h40 v30 h-20 v-10 h10 v-10 h-20 v30 h40 v-40 h40 v30 h-20 v-10 h10 v-10 h-20 v30 h40 v-40 h40 v30 h-20 v-10 h10 v-10 h-20 v30 h40 v-40 h40 v30 h-20 v-10 h10 v-10 h-20 v30 h40 v-40 h40 v30 h-20 v-10 h10 v-10 h-20 v30 h40 v-40 h40 v30 h-20 v-10 h10 v-10 h-20 v30 h40 v-40 h40 v30 h-20 v-10 h10 v-10 h-20 v30 h40 v-40 h40 v30 h-20 v-10 h10 v-10 h-20 v30 h40 v-40 h40 v30 h-20 v-10 h10 v-10 h-20 v30 h40 v-40 h40 v30 h-20 v-10 h10 v-10 h-20 v30 h40 v-40 h40 v30 h-20 v-10 h10 v-10 h-20 v30 h40 v-40 h40 v30 h-20 v-10 h10 v-10 h-20 v30 h40 v-40 h40 v30 h-20 v-10 h10 v-10 h-20 v30 h40 v-40 h40 v30 h-20 v-10 h10 v-10 h-20 v30 h40 v-40 h40 v30 h-20 v-10 h10 v-10 h-20 v30 h40 v-40 h40 v30 h-20 v-10 h10 v-10 h-20 v30 h40 v-40 h40 v30 h-20 v-10 h10 v-10 h-20 v30 h40 v-40 h40 v30 h-20 v-10 h10 v-10 h-20 v30 h40 v-40 h40 v30 h-20 v-10 h10 v-10 h-20 v30 h40 v-40 h40 v30 h-20 v-10 h10 v-10 h-20 v30 h40 v-40 h40 v30 h-20 v-10 h10 v-10 h-20 v30 h40 v-40 h40 v30 h-20 v-10 h10 v-10 h-20 v30 h40 v-40 h40 v30 h-20 v-10 h10 v-10 h-20 v30 h40 v-40 h10 h40 v40 h-30 v-20 h10 v10 h10 v-20 h-30 v40 h40 v40 h-30 v-20 h10 v10 h10 v-20 h-30 v40 h40 v40 h-30 v-20 h10 v10 h10 v-20 h-30 v40 h40 v40 h-30 v-20 h10 v10 h10 v-20 h-30 v40 h40 v40 h-30 v-20 h10 v10 h10 v-20 h-30 v40 h40 v40 h-30 v-20 h10 v10 h10 v-20 h-30 v40 h40 v40 h-30 v-20 h10 v10 h10 v-20 h-30 v40 h40 v40 h-30 v-20 h10 v10 h10 v-20 h-30 v40 h40 v40 h-30 v-20 h10 v10 h10 v-20 h-30 v40 h40 v40 h-30 v-20 h10 v10 h10 v-20 h-30 v40 h40 v40 h-30 v-20 h10 v10 h10 v-20 h-30 v40 h40 v40 h-30 v-20 h10 v10 h10 v-20 h-30 v40 h40 v50 h-40 v-30 h20 v10 h-10 v10 h20 v-30 h-40 v40 h-40 v-30 h20 v10 h-10 v10 h20 v-30 h-40 v40 h-40 v-30 h20 v10 h-10 v10 h20 v-30 h-40 v40 h-40 v-30 h20 v10 h-10 v10 h20 v-30 h-40 v40 h-40 v-30 h20 v10 h-10 v10 h20 v-30 h-40 v40 h-40 v-30 h20 v10 h-10 v10 h20 v-30 h-40 v40 h-40 v-30 h20 v10 h-10 v10 h20 v-30 h-40 v40 h-40 v-30 h20 v10 h-10 v10 h20 v-30 h-40 v40 h-40 v-30 h20 v10 h-10 v10 h20 v-30 h-40 v40 h-40 v-30 h20 v10 h-10 v10 h20 v-30 h-40 v40 h-40 v-30 h20 v10 h-10 v10 h20 v-30 h-40 v40 h-40 v-30 h20 v10 h-10 v10 h20 v-30 h-40 v40 h-40 v-30 h20 v10 h-10 v10 h20 v-30 h-40 v40 h-40 v-30 h20 v10 h-10 v10 h20 v-30 h-40 v40 h-40 v-30 h20 v10 h-10 v10 h20 v-30 h-40 v40 h-40 v-30 h20 v10 h-10 v10 h20 v-30 h-40 v40 h-40 v-30 h20 v10 h-10 v10 h20 v-30 h-40 v40 h-40 v-30 h20 v10 h-10 v10 h20 v-30 h-40 v40 h-40 v-30 h20 v10 h-10 v10 h20 v-30 h-40 v40 h-40 v-30 h20 v10 h-10 v10 h20 v-30 h-40 v40 h-40 v-30 h20 v10 h-10 v10 h20 v-30 h-40 v40 h-40 v-30 h20 v10 h-10 v10 h20 v-30 h-40 v40 h-40 v-30 h20 v10 h-10 v10 h20 v-30 h-40 v40 h-50 v-40 h30 v20 h-10 v-10 h-10 v20 h30 v-40 h-40 v-40 h30 v20 h-10 v-10 h-10 v20 h30 v-40 h-40 v-40 h30 v20 h-10 v-10 h-10 v20 h30 v-40 h-40 v-40 h30 v20 h-10 v-10 h-10 v20 h30 v-40 h-40 v-40 h30 v20 h-10 v-10 h-10 v20 h30 v-40 h-40 v-40 h30 v20 h-10 v-10 h-10 v20 h30 v-40 h-40 v-40 h30 v20 h-10 v-10 h-10 v20 h30 v-40 h-40 v-40 h30 v20 h-10 v-10 h-10 v20 h30 v-40 h-40 v-40 h30 v20 h-10 v-10 h-10 v20 h30 v-40 h-40 v-40 h30 v20 h-10 v-10 h-10 v20 h30 v-40 h-40 v-40 h30 v20 h-10 v-10 h-10 v20 h30 v-40 h-40 v-40 h30 v20 h-10 v-10 h-10 v20 h30 v-40 h-40 Z M8.0,8.0 h1220 v670 h-1220 v-670 Z M68.0,67.0 h1100 v550 h-1100 v-550 Z" stroke="#AB8E0E" stroke-width="7.0" stroke-opacity="0.7" fill="none" />
</svg>