<?xml version="1.0" encoding="UTF-8"?>
<svg xmlns="http://www.w3.org/2000/svg" xmlns:xlink="http://www.w3.org/1999/xlink"
     width="616.0" height="616.0" viewBox="0 0 616.0 616.0" displayInline="False">
<defs>
</defs>
<path d="M308.0,63.81760585232982 L308.0,19.16352117046597 L356.16889758029345,23.208376512680672 L350.58371827668157,56.22993941417707 L329.3667954975377,53.54961874694871 L330.3009348730769,42.42524961649872 L341.40248945051707,43.592070020620724 L342.80164965677517,32.51657654896604 L319.6277366248939,30.57060870175144 L318.2252973840948,64.03179529886486 L358.7683744351707,69.15357702301998 L368.0524806832964,25.475291228490676 L414.3277995681397,39.446633717539555 L401.99910085634855,70.58537216958439 L381.80308874683175,63.552376650776125 L385.0297013309592,52.865320173177054 L395.646064702196,56.31478573485748 L399.3173744753223,45.77222013282358 L377.0544565089652,39.050648910643304 L368.7256920482282,71.48904478449228 L407.31792729383534,84.92828299010074 L425.48037979695914,44.13474676379599 L467.8396664974682,67.42196169096817 L449.3062716708631,95.3169634029621 L431.01383287137753,84.2386686848026 L436.3919002111618,74.45600051031218 L446.05908635390875,80.03735303213335 L451.84209183991885,70.48847600537158 L431.46316528354856,59.2850663243122 L416.572082575654,89.28295791851625 L451.5268101494685,110.45229340737313 L477.77382258008726,74.32638003148728 L514.3657730050406,105.9117043600103 L490.43768035063965,129.34382390206997 L474.8482822135828,114.7044046232989 L482.142756959445,106.25367429359241 L490.4382634509582,113.72298188804987 L498.0802195601743,105.58512518322547 L480.4759412932434,90.38951980627346 L459.6733521078688,116.63585531231146 L489.4628826835227,144.61008654181177 L522.6473346512792,114.73067178223641 L551.8727049794472,153.233675275752 L523.5956869659751,171.17881658410488 L511.3906609961683,153.618085614932 L520.2827395989409,146.86863059652083 L526.8440129992847,155.8994486800224 L536.0109295795602,149.5282756849051 L521.9506910370329,131.00459548363784 L496.14576834347724,152.35228409600498 L519.468156488787,185.90880292616495 L558.1397282060227,163.581760585233 L578.7212295151783,207.31967723316524 L547.3311275180107,218.99355152229447 L539.043891916547,199.27899707180902 L549.1449478723616,194.52580093647623 L553.685229049458,204.7234394240998 L563.9764678584887,200.39740097085627 L554.0747689331837,179.3552196565485 L524.3953116789125,194.87126494530912 L540.2312571186933,232.54349048120824 L582.6998153345755,218.74461944625432 L593.7379372565078,265.80589241327885 L560.6066493593422,270.6982953592856 L556.5993960885738,249.69153805790185 L567.4679647819174,247.14233828512715 L569.788821661641,258.06111144126504 L580.7546061806295,255.96927616893754 L575.4441986292054,233.3282380366131 L543.1873415140675,242.33451436840244 L550.8447374433038,282.4759895827276 L595.2542023770463,277.80836673230874 L596.2665260169815,326.136192564724 L562.8420484824819,324.03330268251386 L563.2899137392761,302.6524386259075 L574.4509865650705,302.41864747817885 L574.4509865650705,313.58135252182115 L585.6120593908649,313.81514366954974 L585.1250335054817,290.56477072934604 L551.700555970982,292.66766061155624 L550.8447374433038,333.52401041727245 L595.2542023770463,338.1916332676914 L586.1964843342514,385.6738540739833 L553.9396272191134,376.667577742194 L558.8230371426524,355.84705328640746 L569.788821661641,357.9388885587349 L567.4679647819174,368.8576617148728 L578.3365334752609,371.4068614876474 L582.6941746241193,348.5633066047189 L549.5628867269536,343.6709036587122 L540.2312571186933,383.4565095187918 L582.6998153345755,397.2553805537458 L563.9679213512741,441.81679543970506 L534.2884640970028,426.30075015094445 L543.3939902404273,406.9505221226566 L553.685229049458,411.27656057590013 L549.1449478723616,421.47419906352366 L559.2460038281764,426.2273951988563 L568.257862182789,404.789031337125 L536.8677601856216,393.1151570479958 L519.468156488787,430.0911970738351 L558.1397282060227,452.4182394147671 L530.5523319348848,492.11130072048456 L504.74740924132914,470.7636121081174 L517.6770964190092,453.72937832486025 L526.8440129992848,460.1005513199775 L520.282739598941,469.1313694034791 L529.1748182017137,475.8808244218901 L542.4470323082899,456.7846109547969 L514.1700142948177,438.8394696464442 L489.4628826835227,471.38991345818823 L522.6473346512792,501.2693282177636 L487.41013768836825,534.3592586957393 L466.6075485029937,508.1129231897012 L482.79630734174214,494.1391614071256 L490.4382634509583,502.27701811195004 L482.142756959445,509.74632570640756 L489.43723170530734,518.197056036114 L506.38974212024044,502.2775891259697 L482.46164946583934,478.84546958391013 L451.5268101494685,505.5477065926268 L477.77382258008726,541.6736199685128 L436.4268595195134,566.7142308737558 L421.5357768116188,536.7163392795517 L440.2760808678987,526.4137699411049 L446.0590863539088,535.9626469678666 L436.3919002111619,541.5439994896878 L441.76996755094626,551.3266676641781 L461.66186822193333,539.2797044050337 L443.1284733953282,511.3847026930399 L407.3179272938354,531.0717170098992 L425.48037979695914,571.8652532362041 L379.83071132921077,587.762149713973 L371.50194686847385,555.323753840124 L391.97475492906966,549.1426486631086 L395.6460647021961,559.6852142651425 L385.0297013309593,563.1346798268229 L388.2563139150867,573.821736304422 L410.21823333087605,566.1737867984455 L397.88953461908494,535.0350483464007 L358.7683744351708,546.84642297698 L368.0524806832963,590.5247087715094 L320.09521637182684,596.583120163953 L318.69277713102775,563.1219335668396 L340.003329244259,561.3324365077245 L341.4024894505172,572.4079299793792 L330.30093487307704,573.5747503835013 L331.2350742486163,584.6991195139512 L354.3071711457562,581.7844358534871 L348.72199184214446,548.7628729519909 L308.00000000000017,552.1823941476702 L307.99999999999994,596.836478829534 L259.83110241970655,592.7916234873194 L265.41628172331843,559.7700605858229 L286.63320450246226,562.4503812530513 L285.6990651269232,573.5747503835013 L274.597510549483,572.4079299793793 L273.19835034322494,583.483423451034 L296.37226337510623,585.4293912982486 L297.77470261590537,551.9682047011352 L257.2316255648295,546.8464229769801 L247.94751931670356,590.5247087715093 L201.67220043186026,576.5533662824605 L214.00089914365142,545.4146278304156 L234.1969112531682,552.4476233492239 L230.97029866904091,563.134679826823 L220.35393529780407,559.6852142651426 L216.68262552467775,570.2277798671764 L238.94554349103493,576.9493510893567 L247.27430795177196,544.5109552155078 L208.68207270616483,531.0717170098993 L190.5196202030408,571.865253236204 L148.16033350253173,548.5780383090319 L166.69372832913683,520.6830365970379 L184.9861671286224,531.7613313151974 L179.60809978883827,541.5439994896878 L169.9409136460913,535.9626469678667 L164.1579081600812,545.5115239946284 L184.53683471645155,556.7149336756879 L199.42791742434616,526.7170420814838 L164.47318985053167,505.5477065926269 L138.22617741991266,541.6736199685126 L101.6342269949593,510.0882956399897 L125.56231964936038,486.65617609793003 L141.1517177864171,501.29559537670104 L133.85724304055498,509.74632570640756 L125.56173654904177,502.2770181119501 L117.91978043982564,510.4148748167745 L135.52405870675662,525.6104801937265 L156.3266478921313,499.3641446876886 L126.53711731647746,471.3899134581884 L93.35266534872082,501.2693282177636 L64.12729502055285,462.7663247242481 L92.40431303402491,444.8211834158952 L104.60933900383162,462.38191438506794 L95.71726040105906,469.1313694034792 L89.15598700071527,460.10055131997757 L79.98907042043979,466.4717243150949 L94.04930896296707,484.9954045163622 L119.85423165652284,463.64771590399516 L96.53184351121308,430.09119707383525 L57.86027179397732,452.41823941476696 L37.278770484821734,408.6803227668348 L68.66887248198933,397.0064484777056 L76.95610808345305,416.72100292819096 L66.85505212763837,421.47419906352377 L62.314770950542,411.2765605759002 L52.02353214151128,415.6025990291438 L61.925231066816394,436.64478034345154 L91.60468832108754,421.1287350546911 L75.76874288130676,383.456509518792 L33.300184665424524,397.2553805537458 L22.262062743492095,350.1941075867213 L55.39335064065784,345.3017046407145 L59.400603911426145,366.30846194209823 L48.532035218082626,368.85766171487296 L46.21117833835899,357.9388885587351 L35.24539381937046,360.0307238310625 L40.5558013707946,382.671761963387 L72.81265848593259,373.6654856315978 L65.15526255669633,333.52401041727273 L20.74579762295366,338.1916332676914 L19.733473983018428,289.86380743527616 L53.15795151751814,291.9666973174863 L52.71008626072384,313.34756137409255 L41.54901343492946,313.5813525218213 L41.54901343492946,302.41864747817897 L30.387940609135114,302.1848563304504 L30.874966494518333,325.4352292706541 L64.29944402901802,323.33233938844404 L65.15526255669624,282.4759895827279 L20.74579762295366,277.8083667323088 L29.803515665748535,230.32614592601684 L62.06037278088655,239.33242225780612 L57.17696285734752,260.15294671359254 L46.211178338358934,258.0611114412652 L48.53203521808257,247.1423382851273 L37.66346652473902,244.59313851235265 L33.3058253758806,267.4366933952812 L66.43711327304632,272.3290963412882 L75.76874288130657,232.5434904812086 L33.30018466542447,218.74461944625435 L52.0320786487259,174.18320456029514 L81.71153590299704,189.6992498490557 L72.60600975957263,209.04947787734352 L62.31477095054191,204.72343942410004 L66.85505212763826,194.52580093647643 L56.75399617182353,189.77260480114376 L47.742137817210846,211.21096866287513 L79.13223981437835,222.88484295200453 L96.53184351121274,185.9088029261653 L57.86027179397723,163.58176058523313 L85.44766806511501,123.8886992795156 L111.25259075867075,145.23638789188274 L98.3229035809907,162.27062167513984 L89.15598700071516,155.8994486800226 L95.71726040105892,146.86863059652103 L86.82518179828628,140.11917557810992 L73.55296769171008,159.21538904520312 L101.82998570518203,177.16053035355617 L126.53711731647704,144.61008654181208 L93.35266534872073,114.7306717822365 L128.58986231163155,81.6407413042609 L149.39245149700616,107.88707681029891 L133.2036926582578,121.86083859287442 L125.5617365490416,113.72298188805004 L133.85724304055478,106.25367429359258 L126.56276829469257,97.80294396388612 L109.61025787975947,113.72241087403037 L133.5383505341604,137.15453041609015 L164.47318985053113,110.45229340737342 L138.22617741991257,74.32638003148736 L179.57314048048636,49.285769126244304 L194.464223188381,79.28366072044835 L175.72391913210123,89.58623005889521 L169.94091364609102,80.0373530321335 L179.60809978883796,74.45600051031232 L174.23003244905368,64.67333233582193 L154.33813177806655,76.7202955949663 L172.87152660467152,104.61529730696031 L208.68207270616426,84.92828299010088 L190.5196202030407,44.13474676379599 L236.169288670789,28.237850286027026 L244.49805313152598,60.676246159876 L224.02524507093014,66.85735133689147 L220.35393529780367,56.314785734857566 L230.9702986690405,52.86532017317714 L227.74368608491307,42.178263695578096 L205.78176666912375,49.826213201554594 L218.11046538091472,80.96495165359948 L257.23162556482885,69.15357702302003 L247.94751931670345,25.475291228490676 L295.90478362817294,19.416879836046974 L297.307222868972,52.87806643316043 L275.9966707557408,54.66756349227546 L274.5975105494826,43.59207002062078 L285.69906512692273,42.42524961649872 L284.7649257513835,31.300880486048754 L261.6928288542436,34.215564146512804 L267.27800815785525,67.23712704800923 L307.99999999999955,63.81760585232982 Z" stroke="green" stroke-width="7.0" stroke-opacity="0.7" fill="none" />
<circle cx="308.0" cy="308.0" r="300" fill="none" stroke="green" stroke-width="7.0" stroke-opacity="0.7" />
<circle cx="308.0" cy="308.0" r="233.01887297720418" fill="none" stroke="green" stroke-width="7.0" stroke-opacity="0.7" />
</svg>