<?xml version="1.0" encoding="UTF-8"?>
<svg xmlns="http://www.w3.org/2000/svg" xmlns:xlink="http://www.w3.org/1999/xlink"
     width="602" height="602" viewBox="0 0 602 602" displayInline="False">
<defs>
</defs>
<path d="M301,56.81760585232982 L301,12.16352117046597 L349.16889758029345,16.208376512680672 L343.58371827668157,49.22993941417707 L322.3667954975377,46.54961874694871 L323.3009348730769,35.42524961649872 L334.40248945051707,36.592070020620724 L335.80164965677517,25.516576548966043 L312.6277366248939,23.57060870175144 L311.2252973840948,57.031795298864864 L351.7683744351707,62.15357702301998 L361.0524806832964,18.475291228490676 L407.3277995681397,32.446633717539555 L394.99910085634855,63.58537216958439 L374.80308874683175,56.552376650776125 L378.0297013309592,45.865320173177054 L388.646064702196,49.31478573485748 L392.3173744753223,38.77222013282358 L370.0544565089652,32.050648910643304 L361.7256920482282,64.48904478449228 L400.31792729383534,77.92828299010074 L418.48037979695914,37.13474676379599 L460.8396664974682,60.421961690968175 L442.3062716708631,88.3169634029621 L424.01383287137753,77.2386686848026 L429.3919002111618,67.45600051031218 L439.05908635390875,73.03735303213335 L444.84209183991885,63.48847600537158 L424.46316528354856,52.2850663243122 L409.572082575654,82.28295791851625 L444.5268101494685,103.45229340737313 L470.77382258008726,67.32638003148728 L507.3657730050407,98.9117043600103 L483.43768035063965,122.34382390206997 L467.8482822135828,107.7044046232989 L475.142756959445,99.25367429359241 L483.4382634509582,106.72298188804987 L491.0802195601743,98.58512518322547 L473.4759412932434,83.38951980627346 L452.6733521078688,109.63585531231146 L482.4628826835227,137.61008654181177 L515.6473346512792,107.73067178223641 L544.8727049794472,146.233675275752 L516.5956869659751,164.17881658410488 L504.3906609961683,146.618085614932 L513.2827395989409,139.86863059652083 L519.8440129992847,148.8994486800224 L529.0109295795602,142.5282756849051 L514.9506910370329,124.00459548363784 L489.14576834347724,145.35228409600498 L512.468156488787,178.90880292616495 L551.1397282060227,156.581760585233 L571.7212295151783,200.31967723316524 L540.3311275180107,211.99355152229447 L532.043891916547,192.27899707180902 L542.1449478723616,187.52580093647623 L546.685229049458,197.7234394240998 L556.9764678584887,193.39740097085627 L547.0747689331837,172.3552196565485 L517.3953116789125,187.87126494530912 L533.2312571186933,225.54349048120824 L575.6998153345755,211.74461944625432 L586.7379372565078,258.80589241327885 L553.6066493593422,263.6982953592856 L549.5993960885738,242.69153805790185 L560.4679647819174,240.14233828512715 L562.788821661641,251.06111144126504 L573.7546061806295,248.96927616893754 L568.4441986292054,226.3282380366131 L536.1873415140675,235.33451436840244 L543.8447374433038,275.4759895827276 L588.2542023770463,270.80836673230874 L589.2665260169815,319.136192564724 L555.8420484824819,317.03330268251386 L556.2899137392761,295.6524386259075 L567.4509865650705,295.41864747817885 L567.4509865650705,306.58135252182115 L578.6120593908649,306.81514366954974 L578.1250335054817,283.56477072934604 L544.700555970982,285.66766061155624 L543.8447374433038,326.52401041727245 L588.2542023770463,331.1916332676914 L579.1964843342514,378.6738540739833 L546.9396272191134,369.667577742194 L551.8230371426524,348.84705328640746 L562.788821661641,350.9388885587349 L560.4679647819174,361.8576617148728 L571.3365334752609,364.4068614876474 L575.6941746241193,341.5633066047189 L542.5628867269536,336.6709036587122 L533.2312571186933,376.4565095187918 L575.6998153345755,390.2553805537458 L556.9679213512741,434.81679543970506 L527.2884640970028,419.30075015094445 L536.3939902404273,399.9505221226566 L546.685229049458,404.27656057590013 L542.1449478723616,414.47419906352366 L552.2460038281764,419.2273951988563 L561.257862182789,397.789031337125 L529.8677601856216,386.1151570479958 L512.468156488787,423.0911970738351 L551.1397282060227,445.4182394147671 L523.5523319348848,485.11130072048456 L497.74740924132914,463.7636121081174 L510.6770964190092,446.72937832486025 L519.8440129992848,453.1005513199775 L513.282739598941,462.1313694034791 L522.1748182017137,468.8808244218901 L535.4470323082899,449.7846109547969 L507.17001429481775,431.8394696464442 L482.4628826835227,464.38991345818823 L515.6473346512792,494.2693282177636 L480.41013768836825,527.3592586957393 L459.6075485029937,501.1129231897012 L475.79630734174214,487.1391614071256 L483.4382634509583,495.27701811195004 L475.142756959445,502.74632570640756 L482.43723170530734,511.1970560361139 L499.38974212024044,495.2775891259697 L475.46164946583934,471.84546958391013 L444.5268101494685,498.5477065926268 L470.77382258008726,534.6736199685128 L429.4268595195134,559.7142308737558 L414.5357768116188,529.7163392795517 L433.2760808678987,519.4137699411049 L439.0590863539088,528.9626469678666 L429.3919002111619,534.5439994896878 L434.76996755094626,544.3266676641781 L454.66186822193333,532.2797044050337 L436.1284733953282,504.3847026930399 L400.3179272938354,524.0717170098992 L418.48037979695914,564.8652532362041 L372.83071132921077,580.762149713973 L364.50194686847385,548.323753840124 L384.97475492906966,542.1426486631086 L388.6460647021961,552.6852142651425 L378.0297013309593,556.1346798268229 L381.2563139150867,566.821736304422 L403.21823333087605,559.1737867984455 L390.88953461908494,528.0350483464007 L351.7683744351708,539.84642297698 L361.0524806832963,583.5247087715094 L313.09521637182684,589.583120163953 L311.69277713102775,556.1219335668396 L333.003329244259,554.3324365077245 L334.4024894505172,565.4079299793792 L323.30093487307704,566.5747503835013 L324.2350742486163,577.6991195139512 L347.3071711457562,574.7844358534871 L341.72199184214446,541.7628729519909 L301.00000000000017,545.1823941476702 L300.99999999999994,589.836478829534 L252.83110241970655,585.7916234873194 L258.41628172331843,552.7700605858229 L279.63320450246226,555.4503812530513 L278.6990651269232,566.5747503835013 L267.597510549483,565.4079299793793 L266.19835034322494,576.483423451034 L289.37226337510623,578.4293912982486 L290.77470261590537,544.9682047011352 L250.2316255648295,539.8464229769801 L240.94751931670356,583.5247087715093 L194.67220043186026,569.5533662824605 L207.00089914365142,538.4146278304156 L227.1969112531682,545.4476233492239 L223.97029866904091,556.134679826823 L213.35393529780407,552.6852142651426 L209.68262552467775,563.2277798671764 L231.94554349103493,569.9493510893567 L240.27430795177196,537.5109552155078 L201.68207270616483,524.0717170098993 L183.5196202030408,564.865253236204 L141.16033350253173,541.5780383090319 L159.69372832913683,513.6830365970379 L177.9861671286224,524.7613313151974 L172.60809978883827,534.5439994896878 L162.9409136460913,528.9626469678667 L157.1579081600812,538.5115239946284 L177.53683471645155,549.7149336756879 L192.42791742434616,519.7170420814838 L157.47318985053167,498.5477065926269 L131.22617741991266,534.6736199685126 L94.6342269949593,503.0882956399897 L118.56231964936038,479.65617609793003 L134.1517177864171,494.29559537670104 L126.85724304055498,502.74632570640756 L118.56173654904177,495.2770181119501 L110.91978043982564,503.4148748167745 L128.52405870675662,518.6104801937265 L149.3266478921313,492.3641446876886 L119.53711731647746,464.3899134581884 L86.35266534872082,494.2693282177636 L57.12729502055285,455.7663247242481 L85.40431303402491,437.8211834158952 L97.60933900383162,455.38191438506794 L88.71726040105906,462.1313694034792 L82.15598700071527,453.10055131997757 L72.98907042043979,459.4717243150949 L87.04930896296707,477.9954045163622 L112.85423165652284,456.64771590399516 L89.53184351121308,423.09119707383525 L50.86027179397732,445.41823941476696 L30.278770484821734,401.6803227668348 L61.668872481989325,390.0064484777056 L69.95610808345305,409.72100292819096 L59.85505212763837,414.47419906352377 L55.314770950542,404.2765605759002 L45.02353214151128,408.6025990291438 L54.925231066816394,429.64478034345154 L84.60468832108754,414.1287350546911 L68.76874288130676,376.456509518792 L26.300184665424524,390.2553805537458 L15.262062743492095,343.1941075867213 L48.39335064065784,338.3017046407145 L52.400603911426145,359.30846194209823 L41.532035218082626,361.85766171487296 L39.21117833835899,350.9388885587351 L28.245393819370463,353.0307238310625 L33.5558013707946,375.671761963387 L65.81265848593259,366.6654856315978 L58.15526255669633,326.52401041727273 L13.74579762295366,331.1916332676914 L12.733473983018428,282.86380743527616 L46.15795151751814,284.9666973174863 L45.71008626072384,306.34756137409255 L34.54901343492946,306.5813525218213 L34.54901343492946,295.41864747817897 L23.387940609135114,295.1848563304504 L23.874966494518333,318.4352292706541 L57.29944402901802,316.33233938844404 L58.15526255669624,275.4759895827279 L13.74579762295366,270.8083667323088 L22.803515665748535,223.32614592601684 L55.06037278088655,232.33242225780612 L50.17696285734752,253.15294671359254 L39.211178338358934,251.06111144126518 L41.53203521808257,240.1423382851273 L30.66346652473902,237.59313851235265 L26.3058253758806,260.4366933952812 L59.43711327304632,265.3290963412882 L68.76874288130657,225.5434904812086 L26.300184665424467,211.74461944625435 L45.0320786487259,167.18320456029514 L74.71153590299704,182.6992498490557 L65.60600975957263,202.04947787734352 L55.31477095054191,197.72343942410004 L59.85505212763826,187.52580093647643 L49.75399617182353,182.77260480114376 L40.742137817210846,204.21096866287513 L72.13223981437835,215.88484295200453 L89.53184351121274,178.9088029261653 L50.86027179397723,156.58176058523313 L78.44766806511501,116.8886992795156 L104.25259075867075,138.23638789188274 L91.3229035809907,155.27062167513984 L82.15598700071516,148.8994486800226 L88.71726040105892,139.86863059652103 L79.82518179828628,133.11917557810992 L66.55296769171008,152.21538904520312 L94.82998570518203,170.16053035355617 L119.53711731647704,137.61008654181208 L86.35266534872073,107.7306717822365 L121.58986231163155,74.6407413042609 L142.39245149700616,100.88707681029891 L126.20369265825781,114.86083859287442 L118.5617365490416,106.72298188805004 L126.85724304055478,99.25367429359258 L119.56276829469257,90.80294396388612 L102.61025787975947,106.72241087403037 L126.5383505341604,130.15453041609015 L157.47318985053113,103.45229340737342 L131.22617741991257,67.32638003148736 L172.57314048048636,42.285769126244304 L187.464223188381,72.28366072044835 L168.72391913210123,82.58623005889521 L162.94091364609102,73.0373530321335 L172.60809978883796,67.45600051031232 L167.23003244905368,57.673332335821925 L147.33813177806655,69.7202955949663 L165.87152660467152,97.61529730696031 L201.68207270616426,77.92828299010088 L183.5196202030407,37.13474676379599 L229.169288670789,21.237850286027026 L237.49805313152598,53.676246159876 L217.02524507093014,59.85735133689147 L213.35393529780367,49.314785734857566 L223.9702986690405,45.86532017317714 L220.74368608491307,35.178263695578096 L198.78176666912375,42.826213201554594 L211.11046538091472,73.96495165359948 L250.23162556482887,62.153577023020034 L240.94751931670345,18.475291228490676 L288.90478362817294,12.416879836046974 L290.307222868972,45.87806643316043 L268.9966707557408,47.66756349227546 L267.5975105494826,36.59207002062078 L278.69906512692273,35.42524961649872 L277.7649257513835,24.300880486048754 L254.6928288542436,27.215564146512804 L260.27800815785525,60.23712704800923 L300.99999999999955,56.81760585232982 Z" stroke="green" stroke-width="2.0" stroke-opacity="0.7" fill="none" />
<circle cx="301" cy="301" r="300" fill="none" stroke="green" stroke-width="2.0" stroke-opacity="0.7" />
<circle cx="301" cy="301" r="233.01887297720418" fill="none" stroke="green" stroke-width="2.0" stroke-opacity="0.7" />
</svg>