<?xml version="1.0" encoding="UTF-8"?>
<svg xmlns="http://www.w3.org/2000/svg" xmlns:xlink="http://www.w3.org/1999/xlink"
     width="822" height="472" viewBox="0 0 822 472" displayInline="False">
<defs>
</defs>
<path d="M11,61 v-10 v-40 h40 v30 h-20 v-10 h10 v-10 h-20 v30 h40 v-40 h40 v30 h-20 v-10 h10 v-10 h-20 v30 h40 v-40 h40 v30 h-20 v-10 h10 v-10 h-20 v30 h40 v-40 h40 v30 h-20 v-10 h10 v-10 h-20 v30 h40 v-40 h40 v30 h-20 v-10 h10 v-10 h-20 v30 h40 v-40 h40 v30 h-20 v-10 h10 v-10 h-20 v30 h40 v-40 h40 v30 h-20 v-10 h10 v-10 h-20 v30 h40 v-40 h40 v30 h-20 v-10 h10 v-10 h-20 v30 h40 v-40 h40 v30 h-20 v-10 h10 v-10 h-20 v30 h40 v-40 h40 v30 h-20 v-10 h10 v-10 h-20 v30 h40 v-40 h40 v30 h-20 v-10 h10 v-10 h-20 v30 h40 v-40 h40 v30 h-20 v-10 h10 v-10 h-20 v30 h40 v-40 h40 v30 h-20 v-10 h10 v-10 h-20 v30 h40 v-40 h40 v30 h-20 v-10 h10 v-10 h-20 v30 h40 v-40 h40 v30 h-20 v-10 h10 v-10 h-20 v30 h40 v-40 h10 h40 v40 h-30 v-20 h10 v10 h10 v-20 h-30 v40 h40 v40 h-30 v-20 h10 v10 h10 v-20 h-30 v40 h40 v40 h-30 v-20 h10 v10 h10 v-20 h-30 v40 h40 v40 h-30 v-20 h10 v10 h10 v-20 h-30 v40 h40 v40 h-30 v-20 h10 v10 h10 v-20 h-30 v40 h40 v40 h-30 v-20 h10 v10 h10 v-20 h-30 v40 h40 v40 h-30 v-20 h10 v10 h10 v-20 h-30 v40 h40 v40 h-30 v-20 h10 v10 h10 v-20 h-30 v40 h40 v50 h-40 v-30 h20 v10 h-10 v10 h20 v-30 h-40 v40 h-40 v-30 h20 v10 h-10 v10 h20 v-30 h-40 v40 h-40 v-30 h20 v10 h-10 v10 h20 v-30 h-40 v40 h-40 v-30 h20 v10 h-10 v10 h20 v-30 h-40 v40 h-40 v-30 h20 v10 h-10 v10 h20 v-30 h-40 v40 h-40 v-30 h20 v10 h-10 v10 h20 v-30 h-40 v40 h-40 v-30 h20 v10 h-10 v10 h20 v-30 h-40 v40 h-40 v-30 h20 v10 h-10 v10 h20 v-30 h-40 v40 h-40 v-30 h20 v10 h-10 v10 h20 v-30 h-40 v40 h-40 v-30 h20 v10 h-10 v10 h20 v-30 h-40 v40 h-40 v-30 h20 v10 h-10 v10 h20 v-30 h-40 v40 h-40 v-30 h20 v10 h-10 v10 h20 v-30 h-40 v40 h-40 v-30 h20 v10 h-10 v10 h20 v-30 h-40 v40 h-40 v-30 h20 v10 h-10 v10 h20 v-30 h-40 v40 h-40 v-30 h20 v10 h-10 v10 h20 v-30 h-40 v40 h-50 v-40 h30 v20 h-10 v-10 h-10 v20 h30 v-40 h-40 v-40 h30 v20 h-10 v-10 h-10 v20 h30 v-40 h-40 v-40 h30 v20 h-10 v-10 h-10 v20 h30 v-40 h-40 v-40 h30 v20 h-10 v-10 h-10 v20 h30 v-40 h-40 v-40 h30 v20 h-10 v-10 h-10 v20 h30 v-40 h-40 v-40 h30 v20 h-10 v-10 h-10 v20 h30 v-40 h-40 v-40 h30 v20 h-10 v-10 h-10 v20 h30 v-40 h-40 v-40 h30 v20 h-10 v-10 h-10 v20 h30 v-40 h-40 Z M1,1 h820 v470 h-820 v-470 Z M61,60 h700 v350 h-700 v-350 Z" stroke="#AB8E0E" stroke-width="2.0" stroke-opacity="0.7" fill="none" />
</svg>